<?xml version="1.0" encoding="utf-8"?>
<!-- Generator: Adobe Illustrator 16.0.0, SVG Export Plug-In . SVG Version: 6.00 Build 0)  -->
<!DOCTYPE svg PUBLIC "-//W3C//DTD SVG 1.1//EN" "http://www.w3.org/Graphics/SVG/1.1/DTD/svg11.dtd">
<svg version="1.1" id="Layer_1" xmlns="http://www.w3.org/2000/svg" xmlns:xlink="http://www.w3.org/1999/xlink" x="0px" y="0px"
	 width="366.275px" height="574.744px" viewBox="0 0 366.275 574.744" enable-background="new 0 0 366.275 574.744"
	 xml:space="preserve">
<title>icon</title>
<path fill="#FFFFFF" d="M359.043,335.441c-7.738-31.848-22.323-65.779-44.349-104.175L183.138,0L51.581,231.267
	c-21.728,38.396-36.313,72.327-44.349,104.175c-5.357,21.43-7.738,43.156-7.144,65.182c0.596,13.691,2.382,27.382,5.953,40.777
	c4.167,15.775,10.417,30.656,18.454,44.943c18.155,31.551,45.836,56.254,78.874,71.434c50.896,22.621,108.639,22.621,159.535,0
	c33.038-15.18,60.719-39.883,78.875-71.434c8.036-13.988,14.286-29.168,18.453-44.943c3.572-13.395,5.357-27.085,5.953-40.777
	C366.781,378.598,364.401,356.572,359.043,335.441z M344.459,399.73c-0.894,26.49-8.334,52.683-21.431,75.601
	c-16.072,27.383-40.182,49.408-69.053,62.504c-44.943,19.941-96.435,19.941-141.378,0c-28.871-13.096-53.278-35.121-69.351-62.504
	C29.854,452.414,22.412,426.22,21.52,399.73c-0.596-19.941,1.786-39.586,6.846-58.932c7.44-29.766,21.132-61.91,41.967-98.817
	L183.138,43.753l112.806,198.228c20.835,36.61,34.526,69.052,41.967,98.817C342.971,359.848,345.352,379.789,344.459,399.73z
	 M277.193,252.697l-94.055-165.19l-94.054,165.19c-19.942,34.824-33.038,65.481-39.884,93.161
	c-4.465,17.264-6.549,35.123-5.953,52.98c0.596,23.216,7.144,45.539,18.751,65.779c13.691,23.514,34.526,42.264,59.528,53.574
	c39.288,17.264,84.232,17.264,123.521,0c25.002-11.311,45.837-30.061,59.528-53.574c11.607-19.943,17.858-42.563,18.453-65.779
	c0.596-17.857-1.488-35.717-5.952-52.98C310.231,318.178,297.134,287.521,277.193,252.697z M301.301,397.945
	c-0.596,19.645-5.953,38.693-15.775,55.658c-11.607,19.645-28.871,35.42-49.705,44.943c-33.634,14.584-71.731,14.584-105.364,0
	c-20.835-9.523-38.099-25.299-49.706-44.943c-9.822-16.965-15.18-36.013-15.775-55.658c-0.595-15.775,1.19-31.551,5.357-46.73
	c6.548-25.895,18.752-54.467,37.503-87.803l75.303-132.152l75.303,132.152c19.049,33.038,31.253,61.909,37.503,87.803
	C300.111,366.395,301.897,382.17,301.301,397.945z M239.69,274.127l-56.552-99.114l-56.552,99.114
	c-17.858,31.549-29.466,58.338-35.419,82.148c-8.334,33.633-5.655,62.504,8.334,86.316c9.227,15.773,23.216,28.572,39.884,36.014
	c27.979,11.906,59.528,11.906,87.506,0c16.668-7.441,30.657-20.24,39.884-36.014c13.691-23.812,16.668-52.683,8.334-86.316
	C269.156,332.465,257.548,305.676,239.69,274.127z M248.322,431.876c-6.846,11.904-17.562,21.43-30.359,27.383
	c-22.323,9.523-47.325,9.523-69.351,0c-12.798-5.656-23.216-15.18-30.359-27.383c-11.013-18.751-12.798-42.265-5.952-70.244
	c5.357-22.025,16.37-47.027,33.336-76.791l37.502-66.076l37.503,66.076c16.965,29.764,27.681,54.766,33.335,76.791
	C261.119,389.611,259.036,413.125,248.322,431.876L248.322,431.876z M202.187,295.557l-19.049-33.038l-18.751,33.038
	c-15.775,27.682-26.192,51.492-30.955,71.137c-2.381,9.227-3.571,18.75-3.273,28.572c0.298,8.93,2.679,17.859,7.144,25.598
	c4.762,8.037,11.905,14.583,20.537,18.453c16.37,6.846,34.823,6.846,51.491,0c8.632-3.869,15.775-10.416,20.537-18.453
	c4.465-7.738,6.846-16.668,6.846-25.598c0.298-9.523-0.893-19.049-3.274-28.572C228.081,347.049,217.664,323.238,202.187,295.557
	L202.187,295.557z M183.138,422.947c-37.502,0-46.432-34.824,0-116.675C229.57,388.123,220.641,422.947,183.138,422.947z"/>
</svg>
